<?xml version="1.0" encoding="UTF-8"?>
<svg id="Capa_2" data-name="Capa 2" xmlns="http://www.w3.org/2000/svg" xmlns:xlink="http://www.w3.org/1999/xlink" viewBox="0 0 22.99 22.99">
  <defs>
    <style>
      .cls-1 {
        fill: url(#Degradado_sin_nombre_13);
      }

      .cls-1, .cls-2, .cls-3 {
        stroke-width: 0px;
      }

      .cls-2 {
        fill: url(#Degradado_sin_nombre_11);
      }

      .cls-3 {
        fill: #1f3300;
      }
    </style>
    <linearGradient id="Degradado_sin_nombre_13" data-name="Degradado sin nombre 13" x1="1.43" y1=".76" x2="22.01" y2="22.7" gradientUnits="userSpaceOnUse">
      <stop offset=".11" stop-color="#a5da00"/>
      <stop offset=".43" stop-color="#9bda00"/>
      <stop offset=".95" stop-color="#81da00"/>
      <stop offset="1" stop-color="#7fdb00"/>
    </linearGradient>
    <linearGradient id="Degradado_sin_nombre_11" data-name="Degradado sin nombre 11" x1="0" y1="11.49" x2="22.99" y2="11.49" gradientUnits="userSpaceOnUse">
      <stop offset="0" stop-color="#7fdb00" stop-opacity=".1"/>
      <stop offset="1" stop-color="#a5da00" stop-opacity=".5"/>
    </linearGradient>
  </defs>
  <g id="Capa_1-2" data-name="Capa 1">
    <g>
      <g>
        <rect class="cls-1" width="22.99" height="22.99" rx="2.45" ry="2.45"/>
        <path class="cls-2" d="M19.99,3v16.99H3V3h16.99M20.54,0H2.45C1.1,0,0,1.1,0,2.45v18.09C0,21.89,1.1,22.99,2.45,22.99h18.09c1.35,0,2.45-1.1,2.45-2.45V2.45C22.99,1.1,21.89,0,20.54,0h0Z"/>
      </g>
      <path class="cls-3" d="M11.15,5.73c.04.2.04.4,0,.59l-.68,3.1c-.12.53-.53.94-1.06,1.06l-3.1.68c-.2.04-.4.04-.59,0l-.89-.2c-.16-.03-.27-.18-.27-.34v-1.36c0-.16.11-.3.27-.34l2.91-.64c.26-.06.47-.26.53-.53l.64-2.91c.03-.16.18-.27.34-.27h1.36c.16,0,.3.11.34.27l.2.89ZM11.83,5.73c-.04.2-.04.4,0,.59l.68,3.1c.12.53.53.94,1.06,1.06l3.1.68c.2.04.4.04.59,0l.89-.2c.16-.03.27-.18.27-.34v-1.36c0-.16-.11-.3-.27-.34l-2.91-.64c-.26-.06-.47-.26-.53-.53l-.64-2.91c-.03-.16-.18-.27-.34-.27h-1.36c-.16,0-.3.11-.34.27l-.2.89ZM11.8,16.82c-.02.1-.02.2,0,.3l.23,1.04c.03.16.18.27.34.27h1.36c.16,0,.3-.11.34-.27l.64-2.91c.06-.26.26-.47.53-.53l2.91-.64c.16-.03.27-.18.27-.34v-1.36c0-.16-.11-.3-.27-.34l-.89-.2c-.2-.04-.4-.04-.59,0l-3.1.68c-.53.12-.94.53-1.06,1.06l-.71,3.25ZM11.19,17.11c.02-.1.02-.2,0-.3l-.71-3.25c-.12-.53-.53-.94-1.06-1.06l-3.1-.68c-.2-.04-.4-.04-.59,0l-.89.2c-.16.03-.27.18-.27.34v1.36c0,.16.11.3.27.34l2.91.64c.26.06.47.26.53.53l.64,2.91c.03.16.18.27.34.27h1.36c.16,0,.3-.11.34-.27l.23-1.04Z"/>
    </g>
  </g>
</svg>