<?xml version="1.0" encoding="UTF-8"?>
<svg id="Capa_2" data-name="Capa 2" xmlns="http://www.w3.org/2000/svg" xmlns:xlink="http://www.w3.org/1999/xlink" viewBox="0 0 156.06 26.47">
  <defs>
    <style>
      .cls-1 {
        fill: url(#Degradado_sin_nombre_13);
      }

      .cls-1, .cls-2, .cls-3 {
        stroke-width: 0px;
      }

      .cls-2 {
        fill: url(#Degradado_sin_nombre_11);
      }

      .cls-3 {
        fill: #1f3300;
      }
    </style>
    <linearGradient id="Degradado_sin_nombre_13" data-name="Degradado sin nombre 13" x1="5.89" y1="5.5" x2="21.84" y2="22.31" gradientUnits="userSpaceOnUse">
      <stop offset=".11" stop-color="#a5da00"/>
      <stop offset=".43" stop-color="#9bda00"/>
      <stop offset=".95" stop-color="#81da00"/>
      <stop offset="1" stop-color="#7fdb00"/>
    </linearGradient>
    <linearGradient id="Degradado_sin_nombre_11" data-name="Degradado sin nombre 11" x1="1.5" y1="13.24" x2="24.97" y2="13.24" gradientUnits="userSpaceOnUse">
      <stop offset="0" stop-color="#7fdb00" stop-opacity=".1"/>
      <stop offset="1" stop-color="#a5da00" stop-opacity=".5"/>
    </linearGradient>
  </defs>
  <g id="Capa_1-2" data-name="Capa 1">
    <g>
      <g>
        <path class="cls-1" d="M12.66,3.47c.07.33.07.67,0,1.01l-1.15,5.24c-.2.89-.89,1.59-1.79,1.79l-5.24,1.15c-.33.07-.67.07-1.01,0l-1.51-.33c-.27-.06-.46-.3-.46-.57v-2.31c0-.28.19-.51.46-.57l4.93-1.08c.45-.1.8-.45.89-.89l1.08-4.93c.06-.27.3-.46.57-.46h2.31c.28,0,.51.19.57.46l.33,1.51ZM13.81,3.47c-.07.33-.07.67,0,1.01l1.15,5.24c.2.89.89,1.59,1.79,1.79l5.24,1.15c.33.07.67.07,1.01,0l1.51-.33c.27-.06.46-.3.46-.57v-2.31c0-.28-.19-.51-.46-.57l-4.93-1.08c-.45-.1-.8-.45-.89-.89l-1.08-4.93c-.06-.27-.3-.46-.57-.46h-2.31c-.28,0-.51.19-.57.46l-.33,1.51ZM13.75,22.25c-.04.17-.04.34,0,.5l.39,1.76c.06.27.3.46.57.46h2.31c.28,0,.51-.19.57-.46l1.08-4.93c.1-.45.45-.8.89-.89l4.93-1.08c.27-.06.46-.3.46-.57v-2.31c0-.28-.19-.51-.46-.57l-1.51-.33c-.33-.07-.67-.07-1.01,0l-5.24,1.15c-.89.2-1.59.89-1.79,1.79l-1.21,5.49ZM12.71,22.75c.04-.17.04-.34,0-.5l-1.21-5.49c-.2-.89-.89-1.59-1.79-1.79l-5.24-1.15c-.33-.07-.67-.07-1.01,0l-1.51.33c-.27.06-.46.3-.46.57v2.31c0,.28.19.51.46.57l4.93,1.08c.45.1.8.45.89.89l1.08,4.93c.06.27.3.46.57.46h2.31c.28,0,.51-.19.57-.46l.39-1.76Z"/>
        <path class="cls-2" d="M17.02,1.5h-2.31c-.28,0-.51.19-.57.46l-.33,1.51c-.07.33-.07.67,0,1.01l1.15,5.24c.2.89.89,1.59,1.79,1.79l5.24,1.15c.17.04.33.05.5.05s.34-.02.5-.05l1.51-.33c.27-.06.46-.3.46-.57v-2.31c0-.28-.19-.51-.46-.57l-4.93-1.08c-.45-.1-.8-.45-.89-.89l-1.08-4.93c-.06-.27-.3-.46-.57-.46h0ZM11.75,1.5h-2.31c-.28,0-.51.19-.57.46l-1.08,4.93c-.1.45-.45.8-.89.89l-4.93,1.08c-.27.06-.46.3-.46.57v2.31c0,.28.19.51.46.57l1.51.33c.17.04.33.05.5.05s.34-.02.5-.05l5.24-1.15c.89-.2,1.59-.89,1.79-1.79l1.15-5.24c.07-.33.07-.67,0-1.01l-.33-1.51c-.06-.27-.3-.46-.57-.46h0ZM22.49,13.76c-.17,0-.34.02-.5.05l-5.24,1.15c-.89.2-1.59.89-1.79,1.79l-1.21,5.49c-.04.17-.04.34,0,.5l.39,1.76c.06.27.3.46.57.46h2.31c.28,0,.51-.19.57-.46l1.08-4.93c.1-.45.45-.8.89-.89l4.93-1.08c.27-.06.46-.3.46-.57v-2.31c0-.28-.19-.51-.46-.57l-1.51-.33c-.17-.04-.33-.05-.5-.05h0ZM3.97,13.76c-.17,0-.34.02-.5.05l-1.51.33c-.27.06-.46.3-.46.57v2.31c0,.28.19.51.46.57l4.93,1.08c.45.1.8.45.89.89l1.08,4.93c.06.27.3.46.57.46h2.31c.28,0,.51-.19.57-.46l.39-1.76c.04-.17.04-.34,0-.5l-1.21-5.49c-.2-.89-.89-1.59-1.79-1.79l-5.24-1.15c-.17-.04-.33-.05-.5-.05h0Z"/>
      </g>
      <g>
        <path class="cls-3" d="M34.99,18.31c-1.08,0-2.01-.21-2.8-.62s-1.4-1-1.82-1.76c-.43-.76-.64-1.65-.64-2.68s.21-1.92.64-2.68c.43-.76,1.03-1.35,1.82-1.76s1.72-.62,2.8-.62,1.92.16,2.67.49c.75.32,1.33.78,1.74,1.38s.62,1.32.62,2.16v.22h-2.46v-.22c0-.65-.2-1.13-.6-1.44s-1.04-.47-1.93-.47c-.72,0-1.29.1-1.73.29-.44.19-.75.5-.95.93-.2.43-.29,1.01-.29,1.74s.1,1.3.29,1.74c.2.43.51.74.95.93.44.19,1.01.29,1.73.29.89,0,1.54-.16,1.93-.47s.6-.79.6-1.44v-.22h2.46v.22c0,.83-.21,1.55-.62,2.16-.41.6-.99,1.07-1.74,1.39-.75.32-1.64.49-2.67.49Z"/>
        <path class="cls-3" d="M46.05,18.31c-1.08,0-2.02-.21-2.82-.62s-1.41-1-1.84-1.76c-.43-.76-.64-1.65-.64-2.68s.21-1.92.64-2.68c.43-.76,1.04-1.35,1.84-1.76s1.74-.62,2.82-.62,2.07.21,2.87.62c.79.42,1.41,1.01,1.84,1.76.43.76.65,1.65.65,2.68s-.22,1.92-.65,2.68c-.43.76-1.04,1.35-1.84,1.76-.79.42-1.75.62-2.87.62ZM46.05,16.19c.73,0,1.31-.1,1.74-.29.44-.19.76-.5.96-.93.2-.43.3-1.01.3-1.74s-.1-1.32-.3-1.74c-.2-.43-.52-.74-.96-.93-.44-.19-1.02-.29-1.74-.29s-1.29.1-1.72.29c-.43.19-.75.5-.94.93-.2.43-.29,1.01-.29,1.74s.1,1.3.29,1.74c.2.43.51.74.94.93.43.19,1,.29,1.72.29Z"/>
        <path class="cls-3" d="M54.57,18.16h-2.21v-9.85h2.35l3.53,4.66,1.35,2.07h.16l-.1-1.99v-4.75h2.21v9.85h-2.35l-3.63-4.71-1.25-1.85h-.15l.09,1.81v4.75Z"/>
        <path class="cls-3" d="M68.11,18.31c-1.08,0-2.02-.21-2.82-.62s-1.41-1-1.84-1.76c-.43-.76-.64-1.65-.64-2.68s.21-1.92.64-2.68c.43-.76,1.04-1.35,1.84-1.76s1.74-.62,2.82-.62,2.07.21,2.87.62c.79.42,1.41,1.01,1.84,1.76.43.76.65,1.65.65,2.68s-.22,1.92-.65,2.68c-.43.76-1.04,1.35-1.84,1.76-.79.42-1.75.62-2.87.62ZM68.11,16.19c.73,0,1.31-.1,1.74-.29.44-.19.76-.5.96-.93.2-.43.3-1.01.3-1.74s-.1-1.32-.3-1.74c-.2-.43-.52-.74-.96-.93-.44-.19-1.02-.29-1.74-.29s-1.29.1-1.72.29c-.43.19-.75.5-.94.93-.2.43-.29,1.01-.29,1.74s.1,1.3.29,1.74c.2.43.51.74.94.93.43.19,1,.29,1.72.29Z"/>
        <path class="cls-3" d="M79.47,18.31c-1.08,0-2.01-.21-2.8-.62s-1.4-1-1.82-1.76c-.43-.76-.64-1.65-.64-2.68s.21-1.92.64-2.68c.43-.76,1.03-1.35,1.82-1.76s1.72-.62,2.8-.62,1.92.16,2.67.49c.75.32,1.33.78,1.74,1.38.41.6.62,1.32.62,2.16v.22h-2.46v-.22c0-.65-.2-1.13-.6-1.44s-1.04-.47-1.93-.47c-.72,0-1.29.1-1.73.29-.44.19-.75.5-.95.93-.2.43-.29,1.01-.29,1.74s.1,1.3.29,1.74c.2.43.51.74.95.93.44.19,1.01.29,1.73.29.89,0,1.54-.16,1.93-.47s.6-.79.6-1.44v-.22h2.46v.22c0,.83-.21,1.55-.62,2.16-.41.6-.99,1.07-1.74,1.39-.75.32-1.64.49-2.67.49Z"/>
        <path class="cls-3" d="M87.66,18.16h-2.21v-9.85h2.21v9.85Z"/>
        <path class="cls-3" d="M91.03,18.16h-2.21v-9.85h2.99l2.31,4.85.93,2.31h.16l.9-2.31,2.24-4.85h3v9.85h-2.21v-5l.07-1.54h-.16l-.57,1.54-2.06,4.41h-2.68l-2.06-4.41-.57-1.54h-.16l.09,1.54v5Z"/>
        <path class="cls-3" d="M104.7,18.16h-2.21v-9.85h2.21v9.85Z"/>
        <path class="cls-3" d="M108.07,18.16h-2.21v-9.85h2.21v9.85ZM114.2,10.29h-7.72v-1.99h7.72v1.99ZM113.98,14.19h-7.5v-1.97h7.5v1.97ZM114.2,18.16h-7.72v-1.99h7.72v1.99Z"/>
        <path class="cls-3" d="M117.41,18.16h-2.21v-9.85h2.35l3.53,4.66,1.35,2.07h.16l-.1-1.99v-4.75h2.21v9.85h-2.35l-3.63-4.71-1.25-1.85h-.15l.09,1.81v4.75Z"/>
        <path class="cls-3" d="M135.03,10.29h-9.53v-1.99h9.53v1.99ZM131.37,18.16h-2.21v-9.85h2.21v9.85Z"/>
        <path class="cls-3" d="M140.9,18.31c-1.08,0-2.02-.21-2.82-.62s-1.41-1-1.84-1.76-.64-1.65-.64-2.68.21-1.92.64-2.68c.43-.76,1.04-1.35,1.84-1.76s1.74-.62,2.82-.62,2.07.21,2.87.62,1.41,1.01,1.84,1.76c.43.76.65,1.65.65,2.68s-.22,1.92-.65,2.68c-.43.76-1.04,1.35-1.84,1.76s-1.75.62-2.87.62ZM140.9,16.19c.73,0,1.31-.1,1.74-.29.44-.19.76-.5.96-.93.2-.43.3-1.01.3-1.74s-.1-1.32-.3-1.74c-.2-.43-.52-.74-.96-.93-.44-.19-1.02-.29-1.74-.29s-1.29.1-1.72.29c-.43.19-.74.5-.94.93-.2.43-.29,1.01-.29,1.74s.1,1.3.29,1.74c.2.43.51.74.94.93.43.19,1.01.29,1.72.29Z"/>
        <path class="cls-3" d="M151.68,18.31c-.99,0-1.83-.13-2.53-.39-.7-.26-1.23-.65-1.59-1.16-.36-.51-.54-1.15-.54-1.92v-.09h2.21v.26c0,.3.07.55.2.74s.38.32.73.41.86.13,1.53.13c.59,0,1.04-.03,1.35-.1.31-.06.53-.16.65-.3.12-.14.18-.31.18-.53,0-.3-.1-.52-.3-.66s-.55-.25-1.05-.34l-2.76-.4c-.59-.1-1.09-.26-1.51-.49-.42-.23-.74-.53-.96-.9-.23-.38-.34-.84-.34-1.37,0-.37.08-.74.24-1.1.16-.36.42-.69.77-.98s.82-.52,1.39-.7,1.28-.26,2.11-.26c1.01,0,1.84.14,2.49.43.65.29,1.14.7,1.46,1.22.32.53.49,1.13.49,1.82v.09h-2.22v-.21c0-.31-.07-.57-.2-.76s-.37-.34-.73-.43-.86-.14-1.52-.14c-.53,0-.94.03-1.24.1-.3.07-.51.17-.64.31s-.19.31-.19.53c0,.19.04.34.12.46.08.12.2.22.37.29.17.07.39.13.66.18l2.76.44c.74.12,1.32.31,1.76.57s.75.59.95.96c.2.38.29.79.29,1.24,0,.53-.15,1.03-.44,1.49-.29.47-.77.84-1.41,1.13-.65.28-1.49.43-2.53.43Z"/>
      </g>
    </g>
  </g>
</svg>